<?xml version="1.0" encoding="UTF-8" standalone="no"?>
<!-- Created with Inkscape (http://www.inkscape.org/) -->

<svg
   width="500"
   height="264"
   viewBox="0 0 132.29166 69.850313"
   version="1.1"
   id="svg1"
   xml:space="preserve"
   inkscape:export-filename="lojinha do pouso.svg"
   inkscape:export-xdpi="96"
   inkscape:export-ydpi="96"
   inkscape:version="1.4 (86a8ad7, 2024-10-11)"
   sodipodi:docname="pouso_logo_escuro.svg"
   xmlns:inkscape="http://www.inkscape.org/namespaces/inkscape"
   xmlns:sodipodi="http://sodipodi.sourceforge.net/DTD/sodipodi-0.dtd"
   xmlns="http://www.w3.org/2000/svg"
   xmlns:svg="http://www.w3.org/2000/svg"><sodipodi:namedview
     id="namedview1"
     pagecolor="#ffffff"
     bordercolor="#000000"
     borderopacity="0.25"
     inkscape:showpageshadow="2"
     inkscape:pageopacity="0.0"
     inkscape:pagecheckerboard="0"
     inkscape:deskcolor="#d1d1d1"
     inkscape:document-units="mm"
     inkscape:zoom="2.0535658"
     inkscape:cx="129.77427"
     inkscape:cy="104.93942"
     inkscape:window-width="1920"
     inkscape:window-height="1017"
     inkscape:window-x="-8"
     inkscape:window-y="-8"
     inkscape:window-maximized="1"
     inkscape:current-layer="g30" /><defs
     id="defs1"><linearGradient
       id="swatch9"
       inkscape:swatch="solid"><stop
         style="stop-color:#2a5c82;stop-opacity:1;"
         offset="0"
         id="stop9" /></linearGradient></defs><g
     inkscape:label="Camada 1"
     inkscape:groupmode="layer"
     id="layer1"
     transform="translate(0,-30.664271)"><g
       transform="matrix(0.04564025,0,0,-0.04564025,-3.9315852,137.73924)"
       fill="#000000"
       stroke="none"
       id="g30"><g
         id="g35"
         inkscape:label="P e O"><path
           d="m 203.33981,2237.0699 c -19.78632,-2.1261 -27.15821,-34.6875 -27.15821,-34.6875 l -1.8164,-22.8222 -4.57031,-555.1318 10.04882,-409.9658 8.21778,-29.209 43.81347,-11.8653 36.5332,32.8565 13.69629,379.8339 40.16601,-14.6044 145.18066,-11.8799 72.1289,46.5674 74.86816,92.2265 17.34375,23.7305 19.1748,-47.4756 41.99707,-91.3037 79.43847,-59.3555 110.47851,-8.2177 83.08593,52.0458 77.60739,132.3926 15.5274,90.3955 86.7334,158.877 5.4785,41.997 -27.3926,19.1748 -42.9053,4.5557 -25.5615,42.9199 -42.0117,75.7764 -65.72754,29.2236 -72.1289,-0.9082 -78.53027,-34.7021 -77.60742,-72.1289 -43.82812,-101.3526 -16.43555,108.6621 -59.34081,103.169 -80.34668,16.4355 -78.53027,-13.6963 -71.2207,-58.4326 -97.69042,-189.917 c 0,0 5.47839,221.8721 2.73926,267.5244 -2.73915,45.6523 -25.558,28.2967 -56.60156,45.6446 -3.88045,2.1684 -7.4521,3.3104 -10.72266,3.6474 -1.43086,0.1475 -2.81177,0.1418 -4.13085,0 z m 309.75584,-148.667 c 13.17382,1.0352 22.77831,-4.2773 35.90331,-17.4023 79,-79 32.00684,-335.0049 -72.99316,-400.0049 -18,-12 -48.00585,-20.9912 -66.00585,-20.9912 -38,0 -100.00683,26.9922 -107.00683,46.9922 -7,19 19.00781,117.0098 58.00781,215.0098 31,78 86.00292,152.9882 123.00292,167.9882 12,4.875 21.1875,7.7871 29.0918,8.4082 z m 398.5986,-16.0254 c 38.8125,-2.4375 65.80664,-43.1308 79.30664,-120.3808 10.00001,-53 9.00491,-65.9971 -4.99512,-86.9971 -13,-20 -24.99999,-25.0049 -59.99999,-25.0049 -50,0 -87.01269,24.0079 -113.01269,73.0079 l -15.9961,31.9921 -14.0039,-32.9882 c -12,-30 -11.98633,-37.0098 4.01367,-65.0098 26,-44 75.99999,-70.001 134.99999,-71.001 48,-1 47.99707,-0.9961 41.99707,-30.9961 -11,-56 -57.00195,-118.0039 -97.00195,-134.0039 -35,-13 -39.99511,-12.9941 -64.99511,6.0059 -48,36 -66.00586,79.998 -66.00586,157.998 0,127 55.99316,248.0069 132.99316,287.0069 15.5,7.75 29.76269,11.1835 42.70019,10.371 z"
           style="display:inline;opacity:1;fill:#008bc9;fill-rule:evenodd;stroke:#2a5c82;stroke-width:0.9975;stroke-linecap:round;stroke-linejoin:round"
           id="path34" /></g><g
         id="g36"
         inkscape:label="U sorriso"
         style="display:inline"><path
           d="m 1763.911,1920.1656 c -5.707,0.7032 -11.6543,-1.538 -16.9043,-7.163 -4,-3 -7.002,-40.002 -7.002,-82.002 0,-194 -98.0048,-320.0058 -250.0048,-321.0058 -106,0 -200.0049,67.999 -235.0049,168.999 -9,26 -15,79.0019 -15,127.0019 0,85 -9.0019,105.9981 -37.0019,82.9981 -12,-11 -13.9864,-30.9991 -10.9864,-108.9991 6,-144 49.9873,-224.9882 156.9873,-287.9882 34,-20 61.0069,-26 122.0069,-30 74,-4 83.9941,-2.0029 143.9941,26.9971 75,37 117.001,83.0009 146.001,161.0009 22,58 36.0048,198.999 25.0048,243.999 -3.75,15.625 -12.5781,24.9903 -22.0898,26.1621 z"
           style="display:inline;opacity:1;fill:#e83629;fill-rule:evenodd;stroke:#2a5c82;stroke-width:1.13267;stroke-linecap:round;stroke-linejoin:round"
           id="path63" /><path
           d="m 1632.0018,2209.3697 c -17.5,0.375 -34.5,-5.373 -45,-17.373 -23,-25 -22.0039,-85 0.9961,-105 27,-25 78.0059,-21.9903 96.0059,5.0097 22,31 20.001,73.9981 -3.999,97.9981 -12.5,12.5 -30.503,18.9902 -48.003,19.3652 z"
           style="display:inline;opacity:1;fill:#e83629;fill-rule:evenodd;stroke:#2a5c82;stroke-width:0.9975;stroke-linecap:round;stroke-linejoin:round"
           id="path60"
           transform="translate(-1.8897637e-6,-2.7165352e-5)" /><path
           d="m 1314.995,2199.9947 c -62,0 -88.9941,-89.9941 -38.9941,-128.9941 15,-12 31.9941,-21.0059 38.9941,-21.0059 7,0 24.0088,9.0059 39.0088,21.0059 33,26 35.9912,78.999 5.9912,108.999 -11,11 -31,19.9951 -45,19.9951 z"
           style="display:inline;opacity:1;fill:#e83629;fill-rule:evenodd;stroke:#2a5c82;stroke-width:0.9975;stroke-linecap:round;stroke-linejoin:round"
           id="path59"
           transform="translate(-1.8897637e-6,-2.7165352e-5)" /></g><g
         id="g64"
         inkscape:label="S e O"><path
           d="m 2075.4393,2167.1822 c -130.5176,-3.6804 -225.4394,-75.747 -225.4394,-174.1845 0,-73 50.9951,-124.9942 154.9951,-158.9942 62,-21 117.999,-48.0087 138.999,-69.0087 44,-44 -2.9902,-122.9903 -84.9902,-144.9903 -36,-10 -53.0088,-9.0049 -99.0088,4.9951 -94,28 -106.9893,29.002 -118.9893,7.002 -27,-50 89.9932,-110.0088 192.9932,-99.0088 107,11 206.0009,87.0088 206.0009,159.0088 0,15 5.0049,27.9932 10.0049,27.9932 6,0 9.9902,-7.9922 9.9902,-16.9922 0,-44 80.0049,-134.0039 145.0049,-164.0039 60,-28 149.0029,-24.9981 213.0029,7.0019 58,29 91.9981,64.9961 127.9981,135.9961 14,27 42.9951,65.0049 64.9951,85.0049 45,41 94.0088,116.9931 84.0088,132.9931 -11,18 -24.999,11.004 -63.999,-30.996 l -38.0127,-41.9971 -4.9952,85.0049 c -9,135 -51.0039,211.999 -134.0039,243.999 -52,20 -96.9892,12.998 -148.9892,-22.002 -27,-18 -41.0029,-22 -48.0029,-15 -6,6 -26.0039,11.001 -44.0039,11.001 -73,0 -146.0029,-115.0049 -168.0029,-265.0049 -10,-71 -12.9981,-77.9931 -22.9981,-57.9931 -17,30 -83.9902,67.9941 -174.9902,98.9941 -41,14 -84.0059,34 -96.0059,45 -42,40 -17.0039,90.999 60.9961,123.999 47,19 83.0059,19.0039 141.0059,-0.9961 39,-13 50.0029,-14.0029 63.0029,-3.0029 21,18 14.001,48.9932 -18.999,72.9932 -20,15 -46.0098,21.0126 -95.0098,23.0126 -9,0.375 -17.8564,0.4212 -26.5576,0.1758 z m 530.7861,-86.3525 c 58.2187,-2.5781 103.7695,-77.5752 103.7695,-190.8252 0,-96 -8.9941,-110.0098 -68.9941,-110.0098 -142,0 -207.0059,190.9981 -96.0059,277.9981 21,16.5 41.8242,23.6963 61.2305,22.8369 z m -179.2236,-21.958 c 6.5,-0.375 5.497,-12.374 -3.003,-35.874 -38,-107 14.9952,-251 109.9952,-300 17,-9 55.0048,-19.002 85.0048,-22.002 l 53.9942,-5.9912 -40.9864,-42.0117 c -72,-74 -162.0038,-77.9902 -239.0038,-9.9902 -52,45 -73.0079,98.0029 -73.0079,183.0029 0,87 22.0098,153.999 65.0098,198.999 21.5,23 35.4971,34.2422 41.9971,33.8672 z"
           style="display:inline;opacity:1;fill:#008bc9;fill-rule:evenodd;stroke:#2a5c82;stroke-width:0.9975;stroke-linecap:round;stroke-linejoin:round"
           id="path65" /></g><path
         d="m 850,978.96942 v -96 h 46 c 57,0 82,13 99,53 29,68.99998 -11,126.99998 -95,134.99998 l -50,5 z m 91,43.99998 c 28,-15 26,-73.99998 -3,-93.99998 -40,-28 -48,-21 -48,44 0,63.99998 9,71.99998 51,49.99998 z"
         id="path22"
         style="fill:#e73427;fill-opacity:1" /><path
         d="m 1040,977.96942 v -95 h 50 c 44,0 50,2 50,21 0,18 -5,21 -30,17 -26,-4 -30,-1 -30,18 0,21 4,23 30,18 26,-6 30,-4 30,15 0,17 -6,21 -30,21 -23,0 -30,4 -30,19.99998 0,16 7,20 30,20 23,0 30,4 30,20 0,17 -7,20 -50,20 h -50 z"
         id="path23"
         style="fill:#e73427;fill-opacity:1" /><path
         d="m 1196,1056.9694 c -9,-8 -16,-29 -16,-45 0,-24.99998 6,-32.99998 34,-43.99998 41,-17 48,-26 36,-45 -7,-11 -14,-11 -33,-3 -18,9 -27,9 -36,0 -17,-17 -14,-23 18,-37 36,-15 67,-6 87,25 21,33 10,63 -32,82 -43,20.99998 -47,47.99998 -5,39.99998 21,-5 31,-2 35,10 13,33 -59,46 -88,17 z"
         id="path24"
         style="fill:#e73427;fill-opacity:1" /><path
         d="m 1330,977.96942 v -95 h 51 c 43,0 55,5 80,29 68,68 12,160.99998 -97,160.99998 h -34 z m 85,48.99998 c 25,-10 37,-49.99998 23,-78.99998 -6,-14 -14,-25 -17,-25 -3,0 -16,-3 -28,-6 -22,-6 -23,-4 -23,55 0,62.99998 6,69.99998 45,54.99998 z"
         id="path25"
         style="fill:#e73427;fill-opacity:1" /><path
         d="m 1520,977.96942 v -95 h 54 c 50,0 54,2 49,21 -5,16 -12,20 -34,17 -25,-4 -29,-1 -29,18 0,21 4,23 30,18 26,-6 30,-4 30,15 0,17 -6,21 -30,21 -23,0 -30,4 -30,19.99998 0,16 7,20 34,20 29,0 33,3 29,20 -4,17 -14,20 -54,20 h -49 z"
         id="path26"
         style="fill:#e73427;fill-opacity:1" /><path
         d="m 1698,1051.9694 c -16,-11 -28,-27 -28,-35 0,-16.99998 12,-17.99998 28,-2 9,9 12,-4 12,-59.99998 0,-65 2,-72 20,-72 19,0 20,7 20,95 0,103.99998 -4,109.99998 -52,73.99998 z"
         id="path27"
         style="fill:#e73427;fill-opacity:1" /><path
         d="m 1827,1061.9694 c -26,-15 -38,-54 -27,-83.99998 11,-30 50,-41 81,-24 23,12 23,12 7,-12 -11,-17 -25,-24 -46,-23 -29,2 -51,-20 -37,-34 13,-13 75,-5 94,12 79,72 16,215.99998 -72,164.99998 z m 61,-74.99998 c -12,-13 -20,-14 -37,-5 -26,14 -27,35.99998 -3,49.99998 13,7 22,5 37,-9 18,-18 18,-21 3,-35.99998 z"
         id="path28"
         style="fill:#e73427;fill-opacity:1" /><path
         d="m 1986,1056.9694 c -18,-18 -21,-55 -6,-69.99998 8,-8 6,-15 -5,-24 -18,-15 -20,-54 -2,-68 61,-49 163,12 113,67 -12,13 -14,21 -7,26 16,9 13,50.99998 -5,68.99998 -8,9 -28,16 -44,16 -16,0 -36,-7 -44,-16 z m 61,-25 c 15,-15 5,-38.99998 -17,-38.99998 -22,0 -32,23.99998 -17,38.99998 6,6 14,11 17,11 3,0 11,-5 17,-11 z m 8,-93.99998 c 0,-22 -31,-33 -47,-17 -17,17 -1,44 24,40 15,-2 23,-10 23,-23 z"
         id="path29"
         style="fill:#e73427;fill-opacity:1" /><path
         d="m 2145,1059.9694 c -27,-21 -10,-37 31,-30 32,5 36,4 32,-13 -2,-11 -13,-19.99998 -26,-21.99998 -23,-4 -31,-30 -9,-36 52,-16 52,-16 34,-33 -13,-14 -21,-14 -42,-5 -21,10 -27,9 -32,-4 -16,-42 76,-55 108,-15 24,29 24,36 -1,61 -11,11 -16,20 -10,20 5,0 12,11 16,24.99998 13,51 -55,85 -101,52 z"
         id="path30"
         style="fill:#e73427;fill-opacity:1" /><text
         xml:space="preserve"
         style="font-size:15.0741px;text-align:start;writing-mode:lr-tb;direction:ltr;text-anchor:start;opacity:1;fill:#008bc9;fill-opacity:1;fill-rule:evenodd;stroke:none;stroke-width:0.16707;stroke-linecap:round;stroke-linejoin:round;stroke-dasharray:none;stroke-dashoffset:0;stroke-opacity:1;paint-order:normal"
         x="18.366016"
         y="86.963341"
         id="text68"
         transform="matrix(21.297563,0,0,-21.297563,126.62516,2963.4998)"><tspan
           sodipodi:role="line"
           id="tspan68"
           style="font-style:normal;font-variant:normal;font-weight:bold;font-stretch:normal;font-family:Carlito;-inkscape-font-specification:'Carlito Bold';fill:#ffffff;fill-opacity:1;stroke:none;stroke-width:0.16707"
           x="18.366016"
           y="86.963341">OBRAS SOCIAIS</tspan></text></g></g></svg>
